<svg width="122" height="40" viewBox="0 0 122 40" fill="none" xmlns="http://www.w3.org/2000/svg">
<path fill-rule="evenodd" clip-rule="evenodd" d="M35.7286 16.8116C35.7286 17.5491 35.6781 18.2756 35.5802 18.9881L35.5833 18.9855C33.9567 31.0435 23.0444 38.3092 17.8643 40V33.6232C7.99811 33.6232 0 26.0964 0 16.8116C0 7.52681 7.99811 0 17.8643 0C27.7305 0 35.7286 7.52681 35.7286 16.8116ZM7.69762 12.3188H19.4619C20.7453 12.3188 21.7857 13.357 21.7857 14.6377V15.3623C21.7857 17.2833 23.3463 18.8406 25.2714 18.8406H25.9976C26.6393 18.8406 27.1595 19.3597 27.1595 20V22.6087H28.9024V20C28.9024 18.3992 27.6019 17.1014 25.9976 17.1014H25.2714C24.3089 17.1014 23.5286 16.3228 23.5286 15.3623V14.6377C23.5286 12.3965 21.7079 10.5797 19.4619 10.5797H7.11667L7.69762 12.3188ZM9.44048 15.942H16.8476V17.6812H10.0214L9.44048 15.942ZM16.8476 21.1594H11.4738L12.0548 22.8986H16.8476V21.1594ZM23.819 23.0435C23.819 24.084 22.9737 24.9275 21.931 24.9275C20.8882 24.9275 20.0429 24.084 20.0429 23.0435C20.0429 22.0029 20.8882 21.1594 21.931 21.1594C22.9737 21.1594 23.819 22.0029 23.819 23.0435ZM50.8333 7.82609H47.9286V19.7101L47.9523 19.6771C47.9366 19.8793 47.9286 20.0836 47.9286 20.2899C47.9286 24.6121 51.4399 28.1159 55.7714 28.1159C60.1029 28.1159 63.6143 24.6121 63.6143 20.2899C63.6143 15.9676 60.1029 12.4638 55.7714 12.4638C53.8999 12.4638 52.1815 13.1179 50.8333 14.2095V7.82609ZM60.7095 20.2899C60.7095 23.0113 58.4987 25.2174 55.7714 25.2174C53.0442 25.2174 50.8333 23.0113 50.8333 20.2899C50.8333 17.5684 53.0442 15.3623 55.7714 15.3623C58.4987 15.3623 60.7095 17.5684 60.7095 20.2899ZM122 20.2899C122 24.6121 118.489 28.1159 114.157 28.1159C109.826 28.1159 106.314 24.6121 106.314 20.2899C106.314 15.9676 109.826 12.4638 114.157 12.4638C118.489 12.4638 122 15.9676 122 20.2899ZM119.095 20.2899C119.095 23.0113 116.884 25.2174 114.157 25.2174C111.43 25.2174 109.219 23.0113 109.219 20.2899C109.219 17.5684 111.43 15.3623 114.157 15.3623C116.884 15.3623 119.095 17.5684 119.095 20.2899ZM90.919 13.3333H93.8238L98.3262 24.058L102.683 13.3333H105.733L99.6333 27.8261H96.8738L90.919 13.3333ZM82.2048 28.1159C84.0762 28.1159 85.7946 27.4618 87.1429 26.3702V27.8261H90.0476V20.8696H90.0264C90.0405 20.6782 90.0476 20.4848 90.0476 20.2899C90.0476 15.9676 86.5363 12.4638 82.2048 12.4638C77.8733 12.4638 74.3619 15.9676 74.3619 20.2899C74.3619 24.6121 77.8733 28.1159 82.2048 28.1159ZM82.2048 25.2174C84.932 25.2174 87.1429 23.0113 87.1429 20.2899C87.1429 17.5684 84.932 15.3623 82.2048 15.3623C79.4775 15.3623 77.2667 17.5684 77.2667 20.2899C77.2667 23.0113 79.4775 25.2174 82.2048 25.2174ZM65.6473 27.8261L65.6474 13.3333H67.6806L67.9712 14.2029L68.4068 15.0725C68.9877 13.6812 70.5854 13.3333 71.3115 13.3333H73.7807V16.2319H70.7306C69.2201 16.2319 68.6488 17.7778 68.552 18.5507V27.8261H65.6473Z" fill="black"/>
</svg>
